<?xml version="1.0" encoding="utf-8"?>
<!-- Generator: Adobe Illustrator 27.2.0, SVG Export Plug-In . SVG Version: 6.00 Build 0)  -->
<svg version="1.1" id="Layer_1" xmlns="http://www.w3.org/2000/svg" xmlns:xlink="http://www.w3.org/1999/xlink" x="0px" y="0px"
	 viewBox="0 0 50 50" style="enable-background:new 0 0 50 50;" xml:space="preserve">
<style type="text/css">
	.st0{fill:#3A545B;}
</style>
<g>
	<path class="st0" d="M21.2,50c0.1-1.1,0.1-2.2,0.1-3.2c0-3.9,0-7.9,0-11.8c0-0.3,0.1-0.7,0.3-0.9c6.8-8.4,2.2-21-8.4-23
		c-0.9-0.2-1.7-0.2-2.7-0.3c0-0.5,0-1.1,0-1.7c0-1.5-0.1-3,0.1-4.5C11.1,1.8,13.3,0,16.1,0c4.9,0,9.8,0,14.7,0c1.6,0,3.2,0,4.9,0
		c0,0.2,0,0.4,0,0.6c0,2.6,0,5.3,0,7.9c0,3.5,2.2,5.8,5.8,5.8c2.6,0,5.2,0,7.8,0c0.2,0,0.4,0,0.7,0c0,0.2,0,0.4,0,0.6
		c0,9.8,0,19.6,0,29.4c0,3.4-2.3,5.6-5.6,5.6c-7.5,0-15.1,0-22.6,0C21.4,50,21.3,50,21.2,50z M33.8,37.5c-2.3,0-4.6,0-6.9,0
		c-1.2,0-2,0.7-2,1.8s0.8,1.8,2,1.8c4.6,0,9.3,0,13.9,0c1.2,0,2-0.7,2-1.8s-0.8-1.8-2-1.8C38.4,37.5,36.2,37.5,33.8,37.5z
		 M35.8,19.6c-1.7,0-3.5,0-5.2,0c-1.2,0-2,0.7-2,1.8c0,1.1,0.8,1.8,2,1.8c3.4,0,6.9,0,10.3,0c1.2,0,2-0.7,2-1.8c0-1-0.8-1.8-2-1.8
		C39.2,19.6,37.4,19.6,35.8,19.6z M35.7,28.6c-1.7,0-3.5,0-5.2,0c-1.1,0-1.9,0.8-1.9,1.8s0.8,1.8,1.9,1.8c3.5,0,6.9,0,10.4,0
		c1.1,0,1.9-0.7,2-1.8c0-1.1-0.8-1.8-2-1.8C39.2,28.6,37.4,28.6,35.7,28.6z M27.6,10.7c-0.9,0-1.7,0-2.6,0c-1.1,0-1.8,0.8-1.9,1.8
		c0,1,0.8,1.8,1.9,1.8c1.7,0,3.5,0,5.2,0c1.1,0,1.9-0.8,1.9-1.8s-0.8-1.8-1.9-1.8C29.3,10.7,28.4,10.7,27.6,10.7z"/>
	<path class="st0" d="M10.6,14.3c5.9,0,10.7,4.8,10.7,10.7s-4.8,10.7-10.7,10.7S-0.1,30.9-0.1,25S4.7,14.3,10.6,14.3z"/>
	<path class="st0" d="M17.8,37.4c0,2.4,0,4.7,0,7c0,1.3,0,2.5,0,3.8c0,0.8-0.4,1.4-1.1,1.7s-1.4,0.1-1.9-0.4
		c-1.2-1.2-2.4-2.4-3.6-3.6c-0.1-0.1-0.2-0.3-0.4-0.6c-0.6,0.7-1.1,1.2-1.7,1.8c-0.8,0.8-1.6,1.6-2.3,2.3c-0.6,0.6-1.3,0.8-2.1,0.5
		c-0.8-0.3-1.2-1-1.2-1.9c0-3.4,0-6.8,0-10.3c0-0.1,0-0.2,0-0.4C8.2,39.9,13,39.9,17.8,37.4z"/>
	<path class="st0" d="M39.2,1.2c3.2,3.2,6.3,6.3,9.5,9.5c-0.1,0-0.2,0-0.4,0c-2.4,0-4.8,0-7.1,0c-1.3,0-2-0.7-2-2
		C39.2,6.2,39.2,3.7,39.2,1.2z"/>
</g>
</svg>
